<svg xmlns="http://www.w3.org/2000/svg" aria-hidden="true" style="position:absolute;width:0;height:0;overflow:hidden"><defs><symbol id="icon-instagram" viewBox="0 0 32 32"><path d="M15.915 9.425c-3.951 0-7.224 3.217-7.224 7.224s3.217 7.224 7.224 7.224 7.224-3.273 7.224-7.224-3.273-7.224-7.224-7.224zm0 11.852c-2.54 0-4.628-2.088-4.628-4.628s2.088-4.628 4.628-4.628 4.628 2.088 4.628 4.628-2.088 4.628-4.628 4.628zM25.058 9.256a1.637 1.637 0 1 1-3.274 0 1.637 1.637 0 0 1 3.274 0z"/><path d="M27.654 5.023c-1.467-1.524-3.556-2.314-5.926-2.314H10.102c-4.91 0-8.183 3.273-8.183 8.183v11.57c0 2.427.79 4.515 2.37 6.039 1.524 1.467 3.556 2.201 5.869 2.201h11.513c2.427 0 4.459-.79 5.926-2.201 1.524-1.467 2.314-3.556 2.314-5.982V10.893c0-2.37-.79-4.402-2.258-5.87zm-.225 17.496c0 1.75-.621 3.16-1.637 4.12s-2.427 1.467-4.12 1.467H10.159c-1.693 0-3.104-.508-4.12-1.467-1.016-1.016-1.524-2.427-1.524-4.176v-11.57c0-1.693.508-3.104 1.524-4.12.959-.959 2.427-1.467 4.12-1.467h11.626c1.693 0 3.104.508 4.12 1.524.959 1.016 1.524 2.427 1.524 4.064V22.52z"/></symbol><symbol id="icon-telegram" viewBox="0 0 32 32"><path d="M30.293 6.139 25.954 26.6c-.327 1.444-1.181 1.803-2.394 1.123l-6.611-4.871-3.19 3.068c-.353.353-.648.648-1.329.648l.475-6.733L25.157 8.764c.533-.475-.116-.738-.828-.263L9.183 18.038l-6.521-2.041c-1.418-.443-1.444-1.418.295-2.099l25.505-9.826c1.181-.443 2.214.263 1.829 2.067z"/></symbol><symbol id="icon-x" viewBox="0 0 32 32"><path d="M18.794 13.755 29.715 1.333h-2.588L17.64 12.117 10.068 1.333H1.333l11.453 16.308L1.333 30.666h2.588l10.012-11.39 7.998 11.39h8.735L18.793 13.755zm-3.545 4.03L4.854 3.243h3.975l18.297 25.609h-3.975l-7.902-11.066z"/></symbol><symbol id="icon-fb" viewBox="0 0 32 32"><path d="m23.39 17.864.881-5.748h-5.515v-3.73c0-1.572.77-3.105 3.24-3.105h2.507V.388S22.227 0 20.052 0c-4.542 0-7.51 2.753-7.51 7.736v4.381H7.493v5.748h5.049v13.894a20.011 20.011 0 0 0 6.214 0V17.865h4.633z"/></symbol></defs></svg>